<?xml version="1.0" encoding="UTF-8"?>
<svg id="Layer_1" data-name="Layer 1" xmlns="http://www.w3.org/2000/svg" viewBox="0 0 580.57 193.97">
  <defs>
    <style>
      .cls-1 {
        fill: #4363d8;
      }

      .cls-1, .cls-2, .cls-3, .cls-4, .cls-5, .cls-6, .cls-7, .cls-8, .cls-9, .cls-10, .cls-11, .cls-12 {
        stroke: #d3d3d3;
        stroke-miterlimit: 10;
        stroke-width: .5px;
      }

      .cls-2 {
        fill: #3cb44b;
      }

      .cls-3 {
        fill: #f58231;
      }

      .cls-4 {
        fill: #f7f7f7;
      }

      .cls-5 {
        fill: #ffe119;
      }

      .cls-6 {
        fill: #4a90e2;
      }

      .cls-7 {
        fill: #daa520;
      }

      .cls-8 {
        fill: #e6194b;
      }

      .cls-9 {
        fill: #ff69b4;
      }

      .cls-10 {
        fill: #f032e6;
      }

      .cls-11 {
        fill: aqua;
      }

      .cls-12 {
        fill: #911eb4;
      }
    </style>
  </defs>
  <path class="cls-8" d="M150.64,143.37l.27.43,2.89-.37.05,1.92-.59,1.82-2.03-.86-.8-1.07-.32-1.28.53-.59Z"/>
  <path class="cls-2" d="M147.43,154.97l.43-1.92.64-.69-1.07-.96-.37-2.08.05-1.87.48-.43,2.08.43,1.66-.27-.11-.86,2.03.86.59-1.82-.05-1.92.53-2.03,1.34.64,2.46-.11,1.55,1.92,1.87.43.75.59,1.55-.69,3.53,1.44,1.28-.69-.05-.59,1.92.11.21,1.12,1.12,1.18,1.02.48,1.02,3.26,1.76.53,1.76-.11-1.02,1.55-.05,1.55-1.07,1.02-1.44.37-.16,1.76,1.39.32,1.07,2.3-.05.8.8.69-1.02.11-.48.69-1.6-.27-.96,1.6-1.5.05-4.6-.64-1.07.16-.75-.69-1.44-.21-1.23-1.02-2.25-.75h-2.41l-1.28-.27-7.11-.11-1.55-.27-.32-1.6,1.76-2.46-.05-.86-1.07-.27-.53.48Z"/>
  <path class="cls-5" d="M178.86,161.87l.53.59-2.51-.48.32-.53,1.66.43M203.18,166.57l-.21-.05-1.02-.21-.64-.91-.32-2.99-1.18-.59-2.25-.32-.96-2.62-2.08,1.98-1.5-.37-.96,2.62-4.76-1.02-2.78.05-.69-.69-3.31-.11-.96.64-1.55-.59-.27-.8-.86.69-.8-.69.05-.8-1.07-2.3-1.39-.32.16-1.76,1.44-.37,1.07-1.02.05-1.55,1.02-1.55,1.12.27.16-.64,1.76.69,2.51.11,2.19-.59,2.35.16,2.08.59,3.64-.59,1.98.91,1.39-.43,1.12-1.39.75-1.82.21-2.3.69-.59,2.3-.75,1.55.53.96,2.3.48.48,3.31-.05.69-.96,1.44.43.8.75-.48.86-.27,1.98.27,2.3-1.87,2.03-2.78-.59-.21.69v2.67l.43,1.02-.27,1.12,1.5.86-.21,1.92-2.14.96-1.55,1.39-.16,1.34Z"/>
  <path class="cls-1" d="M201.95,166.3l-1.87-.16-2.62-.64-5.4-2.41.96-2.62,1.5.37,2.08-1.98.96,2.62,2.25.32,1.18.59.32,2.99.64.91Z"/>
  <path class="cls-3" d="M111.67,131.93l1.44-1.02.37-.48,1.12.53.48.96h2.35l1.55-.75,1.07-.11.43-.96-.96-1.23.48-1.02-.16-2.3,2.57-1.66,1.82-.37,1.92-1.07,1.66-.48,1.55-1.66.16-1.28,1.6-.96.48-1.6,2.57,1.23.91,1.02.27,1.07,1.39,1.18h1.5l-.05,1.76,1.23,1.98-.16,4.65.53,1.12-.43,1.18.11,2.62-.27,1.6.16,3.31-.43,2.14-.59.86-.27-.75-1.34-.21-.86-1.82-.75.11-2.25-2.25h-.75l-.05,1.34-.69.16.59,2.14-1.18.37-4.12-1.82-1.07-.96-1.12-.37-1.02.91,2.08,2.89.43,1.39-1.87.21-.32-1.07-2.03-1.66-1.12-.53-.53-1.23-1.87-1.02-1.55-1.55.05-.64-1.28-.43.11-.96-1.6-1.23-1.71-.53-.59-.75Z"/>
  <path class="cls-12" d="M236.54,47.68l2.25-.91,1.34.75.75-.75,1.23,1.6,3.21.75,1.28.75,1.34,1.34,4.17-.21.37-3.21,1.71-.21,2.89-.86,3.47-5.51-.27-1.44.75-.59.59-3.64,1.23-.32,1.02-1.6.59.64,2.25.05,3.15-1.28.69-.86,2.08-.59h1.39l.96.91,2.14.16,1.39,1.6,1.98.69,1.28-2.25,1.55,2.41-1.76,1.28-.43,1.44-1.98.16,1.66.59-.05,1.23.8.8,1.5.32,1.07,1.55,3.8,1.82-.32.43,2.73,1.07,1.44,1.12,1.71,2.3,1.82.16.05.91-2.41,2.03-1.44-.43-1.44.59-1.66-.32-.53.43-.86-.59-1.6-.11-1.5-.59-1.07-1.76-1.07.05,1.71,2.57-.37.91-1.02-.59-1.23.43-.96,1.23v.75l-1.18,1.87-1.6,4.86.86,1.71-.53.75-.48,2.08.75,1.5-.53,1.71,1.82-1.34.11,1.18-.59,2.14.96,1.07-2.83.8-.48.75-.75-1.07-.32,1.23-1.02.91-1.55,2.78-2.46.86-.48-1.23-.86-.37.96,1.39-.27,1.5-1.82.75-.86.8.32,1.5-2.78,1.34-1.18,1.07,1.87-.37.86.32-.37.64.69.69v1.39l-2.03,1.92,1.02-.43.48.75,1.44-.48.96.27-.32,2.03-2.25-.48-4.22-.11-.64-.16-1.39,1.02-.86-1.98.11-1.66-1.02-.48-.21-2.62-1.5-3.1-.75-.05,1.23-1.18h.53l.91-1.66-.05-2.51-.8.27-1.44-1.44-2.08-1.02-.64-1.34-.53-2.3-.64-.86-.8-2.35-.05-1.12.75-2.73-1.98.05-2.14,2.35-.48-.96.53-1.92-.96-2.67.16-.96,1.18-2.14-.27-1.23-1.07-1.12-2.89.91-.86.64-3.42.59-2.41-.64-1.82.16-.75.53-2.35.69,1.6-2.25.32-1.55-1.07-.43-.05-.91,3.85-3.05.05-2.73Z"/>
  <path class="cls-9" d="M551.77,161.44l-.16.75-4.49-.64.05-.8,1.71-1.66,1.92.11.11,1.23.86,1.02M549.9,141.34l-.86-.21-.75-1.71,1.6.64v1.28M500.29,70.67h2.73l-.75.53-2.25.05.27-.59M497.46,65.48l.86-.75-.48,1.5-1.39-.21-.69-1.02.96-1.23,1.07.75-.32.96M540.17,151.33l2.89-2.03,2.03-.69,3.05-.53,2.46.16,1.82,2.3,1.82.48-1.23,2.19-.05,1.23-1.39,1.34.11,1.5-1.98,1.44-1.18.21-.8,1.12-2.14,1.66-2.03.48-1.55-.48-4.33-.16-2.83.59v-.48l1.66-4.17.59-.43,1.28-2.99,1.82-2.73M515.69,75.75l-7.48-2.41-3.1-.27-.86-.8.75-.32,5.56.59,3.9-.11,2.67.86,4.22-.11,1.92.37.37.69-1.92.21-1.12.69-2.51.32-1.55-.37-.86.64M503.39,60.62l.32-.91,2.41.43.96-.16,1.39.75.91-.75,2.99,2.19,1.82,2.51,1.34-.21,1.07.48-1.02,1.23-1.98.59-2.03-.64-1.12.32-1.12-1.02-.75-3.05-.53-.69-1.07.96-2.41-1.6-1.18-.43M494.95,88.68l.43,1.6.96.21,1.02-1.07-.37,3.1.86,1.39,1.12-.11.32,1.18,4.44.64,1.98-.37,2.14-2.46,1.66-.96-.27-.43,2.14-1.28.64-2.78,1.39-1.39,2.51-1.6,1.66-4.54,4.76.21,3.47-1.87,2.67-.64-.32-1.66-1.39-.8.48-1.34,2.73-1.12,2.41-1.6,3.47-1.66,1.71-.05,2.14,1.6,3.85,1.18,4.22.91,1.92,1.71,4.17,1.07,2.46,1.44,8.07,3.1,4.12-.75.64,1.02,1.66.69.75-.8,3.05.48,1.92.75-.59,1.5,3.8-.21.21,8.98.37,24.06v18.39l-.37,1.98-1.28,1.76-.16,1.28.91,2.19.8.48-.69,30.36-1.6-.86-3.1-3.37-1.5-2.35-3.37-3.26-2.94-2.25-.8-1.44.96-1.34-1.5.86-4.06.16-1.6.69-2.14.21-.96-.37-.8-1.34-1.82.75-2.41,2.08-.96-2.08,1.12-.75-.11-2.14,1.12-.75.21-1.5,1.18-2.62-1.82-.75-.91-1.98-2.67-2.3,2.94.16,1.34.53,2.03.05-2.51-1.07-2.78-.69-2.51-2.35.11-.69,2.14.11,2.57-.69,2.62,1.71-1.66-1.6-2.41-.64-2.03-1.5.53-.91-3.26-3.05-1.02-2.25-.37-1.92-1.28-2.78,1.44-.37-2.25-.43-.69-.69,2.73-1.28-1.71.11-2.19.59.05-4.17-1.23.69-.96-1.07.16-.8-1.39.48-1.55-1.87-1.71-.53-1.55-1.12h-.8l-1.66-2.08-.86,1.02-3.53-1.18-.11-.59-1.66.69-6.25-3.21h-1.18l-3.1-1.18-.86-.86-3.26-.27-3.9-.75-2.67.43-3.58-1.76-1.12-.8,5.02-6.63-13.36-4.33-.11-1.23.96-1.55,1.55-1.5-.11-.69,2.89-2.57Z"/>
  <path class="cls-10" d="M97.07,139.68l-1.07.16-2.57-1.5.86-.75,2.83.96-.05,1.12M77.94,104.08l1.71-1.5,1.98-.96,1.18-.86,1.07.8.69,1.76,2.25,2.14,2.14,1.18,2.08.37,2.03,1.98.32,1.28,2.35.21.75.75-.27,1.23,2.19,1.34,1.6-1.23,1.34,1.12,1.34.16.59,1.07-.21,1.18h-1.39l.21.69-2.25,2.08-.91.32,1.82,1.71,2.67.75h2.03l.69,2.35,5.4,1.82.16,1.07,1.98,3.53-.37.48-1.44,1.02-1.28-.48-1.18.05-.27-.64-2.89-2.19-3.21-1.34-.59-.86-2.25-1.71-5.02-3.1-.21-1.82-1.18-2.41-2.03-1.02-5.51-3.31-2.94-3.85-1.28-2.19-2.89-1.71-1.02-1.28Z"/>
  <path class="cls-7" d="M133.16,150.27v1.23l-.86.59-.05-1.55.91-.27M151.22,146.31l.11.86-1.66.27-2.08-.43-.48.43-.05,1.87.37,2.08,1.07.96-.64.69-.43,1.92h-1.5l-2.94-1.6-1.12-.16-2.25.53-.86-.11-2.62.59-2.19-.59-.64-.48,1.18-1.34,1.23,1.71,1.92-2.51-.16-1.02.69-.75.43.69.86-.32.43-.96-.05-2.51.59-1.98,1.82-2.41.91,1.23.69.27.96-.91,2.94.91,2.03-.43.86.53-.53.59.32,1.28.8,1.07Z"/>
  <path class="cls-6" d="M480.89,107.23l-1.23.21-1.71-.96v-.75l1.76,1.18,1.18.32M490.78,79.86l-.59-.86.59-1.07.59.37-.59,1.55M488.21,76.98l-.32-1.18.69-1.12.27.64-.64,1.66M433.15,69.76l-1.23.75-1.5-.32,1.44-.8,1.28.37M444.16,64.04l1.07.11-1.28,1.18-2.57.64-2.25-.11.05-.96,3.64-.05,1.34-.8M440.1,55.38l3.37-1.07,4.28.8,1.92.86.59,1.5-1.23,1.5-1.82-.75-.96.59-.91-.21-1.02-1.12-1.07-.16-1.39-1.92-.8.8,2.46,2.14.96-.32.8.86-1.02.86-1.66.21-.69-1.87-1.39.64-.16,1.18.8-.27.86.64-.53.86-2.3.11.48-1.12.69-.21-.8-2.19-.75.43-2.78-.75,2.14-.11.11-.91-1.39.48-.32-.86,1.28-.48.59.37,1.02-.8.64.32M438.39,79.33l-.96,1.28-4.28-.37-2.73-1.44,3.69-1.82,2.67-.27,1.71-.59v.59l1.12,1.34-1.12,1.02,1.18.43-.8.64-.48-.8M443.52,70.19l-1.66-3.21.37-.43,2.67-1.02.59.43,1.23-.16.59.69-.37,3.26-.59,1.6-1.71-.16-1.12-1.02M498.1,107.18l-1.76-.64-1.12-.91.53-2.51,2.99.37-.27-.69-3.1-.11-1.12,1.34-.8.27-1.28-1.55-1.28-.48-.16,1.98-1.66-.91-.64-.91.64-.53-.91-1.12-.43,1.02-1.71.21-1.6-2.51-.16,1.07-1.6-1.39-.91-1.92.69-.48-.27-2.51,2.3-2.03-.11-2.03-.75,1.23-1.66,1.39v3.15l-1.34.96.43,1.71-2.25,2.08.64,1.6-2.35,2.73-.75.32-1.71-.16-1.44.69-2.3-2.14.43-.05-1.34-3.26.32-.75,1.6.16.64-1.18-1.34-1.12-.32-2.3-1.55.75-1.23-1.34.32-.43-.96-1.18-3.05-1.92-1.76-.32-1.44.53-1.28-.48.8-1.44-1.02-.11,2.99-1.6,1.44-.05,3.53.37,2.03,1.12,1.23-.96,2.46-3.42,1.76-.8,1.82.21,1.34,1.55.32-.86,1.12,1.12,1.12-.8.8.37.27,1.98.32-2.67,1.39,1.71-.05-2.19-.96-.48,3.15-.53-1.23-.53.69-.91-1.44.11-.64-.48,1.98-1.23-.11-.8-2.99.96-.8.86-2.62.11-1.98-.37-4.54,1.23-1.66-.48-1.5.86-1.87-1.5-2.67,1.23-1.76-1.28-1.87-.69-1.39-1.76-.64-2.03,1.07-1.6-1.28.37-.32-1.34.86-.86-2.03.96.05-1.12-1.12.69-.27-.75-1.71-.32-1.87.32-.75-1.28h-1.28l.69.96-1.5.75-1.07-.86h-2.14l.8-2.19,1.92-.86.86-1.76-.32-3.31,3.85-1.28-.32.64,4.65-1.55,2.67-2.83,2.14-1.23,2.14-.59h3.53l2.62,1.07.91-.16,1.07.8,1.28.21,3.21,2.35,4.65.11,2.99-.48,2.67,1.71-1.28.48-.48.8,1.34,2.46,1.02.75,1.12,1.76-.64,1.18-.21,1.76-1.55,1.5,1.12,4.6v1.76l.64,2.67,1.87,1.76,1.02,2.89.86,1.5.91-.37-.8-2.62.05-1.23.86-.64-.43-1.12.69-1.28.11,1.71,1.02,1.55.32,3.58-2.89,2.57.11.69-1.55,1.5-.96,1.55.11,1.23,13.36,4.33-5.02,6.63Z"/>
  <path class="cls-11" d="M277.33,23.36l-1.07-.64-.48-1.34,1.71.05-.16,1.92M280.05,20.63l-1.39-.8v-.48h.75l.64,1.28M275.3,20.47l-.05.59-2.99-.48.11-1.02,1.55.21,1.39.69M277.38,14.49l-1.39-.86.75-1.12,1.12.8-.48,1.18M279.73,12.24l.37,1.18-1.12.32-1.76-1.39,2.51-.11M240.87,46.77l1.12-2.46-.05-1.55,1.87-1.12.11-1.44-.8-.11-.43-1.39.27-1.18,1.66-.69,2.41-2.35.96-.43-.59-.91-1.28-.16-.05-2.67,2.03-2.67.86.59,1.82-.64.59-1.55-.48-.59.32-1.82.96-1.07-.75-1.98.32-3.05-.64-.48.91-1.76.21-1.6,2.03-1.44.21-1.34,1.76.75.48.59,1.23-1.39,1.23.21,1.02-.43,1.02,1.02,1.23-.43.43-.86.59.69,1.6-.48,1.12.37,4.38-.32.64-.27,2.78,1.87,1.6.21-.69.48-1.66-.43.32.8,1.55.53,2.14,1.44-.69.27,2.46.59-1.07,1.18,1.12.48-.86.91-1.23.16-1.28-.37-1.02-1.5.8,1.98-5.29.05,1.55.43.21,1.18,1.23.8,1.44-.11-.8,1.66-.16,1.5,1.28.05.37.86,1.66.05-.59,1.28,1.55.05-1.76.64,2.35.21-1.18,1.12,1.87.53.64,1.82,1.92,1.6-1.28,2.25-1.98-.69-1.39-1.6-2.14-.16-.96-.91h-1.39l-2.08.59-.69.86-3.15,1.28-2.25-.05-.59-.64-1.02,1.6-1.23.32-.59,3.64-.75.59.27,1.44-3.47,5.51-2.89.86-1.71.21-.37,3.21-4.17.21-1.34-1.34-1.28-.75-3.21-.75-1.23-1.6Z"/>
  <path class="cls-4" d="M488.27,103.12l1.07,1.18-1.5-.53-.43-.8.86.16Z"/>
  <path class="cls-4" d="M26.94,48.32l.64-.27.96.59.11,1.87-1.71-2.19M1.17,2.99l.91-.37.53.69-.59.8-.86-1.12M11.33,41.64l1.39.37,2.03,1.92.96.37.75,1.12.86-.21.53,1.55-1.82.16-.11-.48-3.42-2.19-1.71-.11-3.05-2.25.86-.8.21-1.28,1.55.37.96,1.44M38.38,48.11l-1.87-.96-.91.32-1.76-.32-1.12-1.6-.32-3.21-.64-2.41-2.3-.69-1.18-1.28-.86-2.25-1.12-.37-2.19-3.37-1.76-1.98-1.6-.75-2.51.11-1.71-.96-3.1-3.69-.86-.11-1.5-1.07-5.13-4.92-.64-.11-1.82-2.35-1.87-4.54-1.18-1.28.64-1.34-.75-1.87,2.73-1.39,1.23.59,1.28-.32,3.53,1.34.53,1.23,2.57,1.6,2.99.64,3.64.05,2.19-.91,1.82.05,3.8,1.39,2.83-1.28,2.14,2.14,3.15,2.25,1.34,3.15-.11,1.07.8-.11,1.82.64.91.86-.05,1.76-.96-.05-1.55.69-.69,3.31-2.62,2.99,1.71,3.85,1.07,1.28-1.55.96.96,1.39-.48.75.43,2.19,1.71,1.12.27,1.66-.53,1.28,1.44,3.1-.27,1.71Z"/>
  <path class="cls-4" d="M174.64,87.45l-.32.86-1.23.32-.32-1.18,1.07-.43.8.43M182.07,79.81l1.92.59.32,1.18-3.58,2.19-.75-.48.27-3.05,1.82-.43M199.76,101.99l-1.92.8-1.55,1.76-.64-2.03-1.34-.37-2.89,1.71-.8-1.23.43-1.34-.48-1.6-.69-.37.69-1.07-.8-1.18-.32-1.71-.59-1.12.32-1.55-.75-1.76-2.19-1.02,1.5-2.3.27-2.57-.53-1.76-1.28-.69-.16-1.44-1.07-.16-1.34-1.55-.64.43-2.41-1.5-.96.8-1.66-.64-.27-2.25,2.57.69-1.6-1.76-1.02.16-1.71-1.02-.37-1.66-.75-1.39.86-.53,1.34.32-.48-.69-.48-2.51,1.71.16-1.71-1.12-.86-1.55-2.25-1.07.21-1.28-.48-1.02.11-1.34-.96-2.25,1.02-.69.37-1.39-.69-2.19.64-.48.8-2.08.32-2.14,1.87-1.39,1.07-1.82-.16-1.5,2.62-.8.8-.53-1.12,1.76.27.91,1.18.37.11,1.71.48.75,2.08,1.98,1.12.21.59,1.07,1.5,1.12.91.16,1.28,2.08,1.07.05.91.91,1.66.59,2.73-.8.8-1.12,4.12-1.18,1.92.64,2.3.05,1.39-.43,2.03.16,1.02-1.34,2.3-.64.86-2.62-.11-.96,3.47-1.6,3.64-.05,1.02-.37,2.08.43-.69,1.5,1.55-.27,2.94.8.91.64,1.28-.32,1.82.91,1.87-1.39,1.18-1.28,1.76-.37,1.87.21-.05,2.73-3.85,3.05.05.91,1.07.43-.32,1.55-1.6,2.25-1.5,1.87-.21,1.23-1.07.64-1.39-.11-1.12.43,1.71,2.08.37,1.39-.53,1.71-1.23.86-.86,1.34.69.69-.48,1.6-1.23-.91-1.87.69-5.02,2.51-2.41.69-3.21-.05-5.51,3.69-.75,2.14-1.92,1.07-1.02,1.34-2.25,2.03h-1.5l-1.07,1.12,1.23.53.27.96-.32,2.94.27,1.71,1.71,3.26.21,4.01-.8.43-1.28,1.5Z"/>
  <path class="cls-4" d="M150.05,106.49l-1.76-.64,1.02-.96,1.23.37-.48,1.23M157.64,104.24l-1.02.91-.86-.69,1.39-.86.48.64M159.56,100.28l2.14-.27,1.76.21.53.8.43-.64,1.66.96.86.91.37,1.28-.96,1.76.16,1.55-1.44.43-.16.8-.96.21-.37-1.07-1.23-1.12-.32,1.12-2.46,1.34-.48-.43.48-1.07-.8-1.28.32-1.12-.32-1.6.59-.48.21-2.3M148.18,107.39l-2.3.16-.96-1.34-4.38-1.44-1.34-.16-1.18-2.3.43-1.6-1.5-1.18-.53-2.67-2.35-.59-.53-.53-1.39.75-1.76.27-.96-.75-1.02.16v-1.76l2.62-1.5.16-1.07-.59-1.07,1.28-1.07,1.6-.59.48,1.07.96.43-.59.69.8.75,1.23.16-.86-1.02-.48-2.19,1.39-.11.96-.37,1.66,1.12-.05,1.02,1.82,2.35-.05,1.6,1.5,4.12,1.18,1.28,5.93.91-1.12.64-.75,1.07-.64,2.14.05.86,1.6.69-.32,1.07Z"/>
  <path class="cls-4" d="M259.15,169.14l.64,1.12-.37.53-1.5-.86,1.23-.8M248.25,163.15l2.03.59,1.98-.32,1.28-1.28.96-.21,3.53,1.23,2.67,2.3-1.28,1.6-3.31,1.66-1.28,1.28.32,1.12-1.18.43-.53-.37,1.07-1.23-.37-.69-2.89-2.25-1.6-.64h-1.87l-1.12-.75-1.07-1.34-.27-1.5,1.07.37h1.87Z"/>
  <path class="cls-4" d="M244.08,151.17v.53l-1.23-.37.32-1.12.91.96M255.78,147l2.35.75-.11.43-2.14-.27-1.02,1.23-.96-1.18.64-.91,1.23-.05M222.91,135.3l.27,1.12-1.55.32-.27-.64.69-.8h.86M232.48,148.72l.96.11,5.61-.48,1.66,1.18-2.57.91-.86,1.07-2.03-.16-.96.59-.37.96-4.65.11-.43.11-3.8-.64-1.12.05-.37-1.5,1.07-.64.59-.96,2.67-.48.96.11,3.64-.32M210.93,148.02l.59.43,2.03.37,1.07-.37,1.18,1.28,1.55.05,2.03-.53,1.66.37,1.28-.11-.21,1.02,1.02.75-.64.32.96,1.12-.96.27,1.23.69.96-.64.48.64-.05,1.76-.48,1.55,1.02.69,2.35.59,1.23.86,1.28.05.75.59,2.73-1.23,3.31.11,1.66-.64.86-.75,1.55.91,1.39-.05,1.55.59,1.07.86-.16,2.25-.8,4.81.27,1.34.53-.69.53,1.82,1.55.48.16,1.39-2.78-.32.16-.91-1.02-.59-1.23.43-2.03-.37-.59.21-2.08-1.28-1.12.27-1.02-.75-2.78-.69-.8-.75-1.82-.48-2.51.69-.96,1.02-.86-.27-1.92.96-2.78-.53-1.28-.64-4.97-.11-1.66-.48-1.39,1.44-.53-.53h-2.19l-.11-.43-2.14-.21-1.12.48-.96-.86-.37.59-1.39-.27.16-1.34,1.55-1.39,2.14-.96.21-1.92-1.5-.86.27-1.12-.43-1.02v-2.67l.21-.69,2.78.59,1.87-2.03-.27-2.3.27-1.98.48-.86Z"/>
  <path class="cls-4" d="M266.26,107.66l-.86-1.18.86-1.98.37.43-.37,2.73M262.04,106l.8-1.98,1.66-1.28.05,2.25.75,1.07-.53.21.48,2.46.11,2.3-2.14,1.6-.91-.05.43-1.18-.21-1.5-.86-1.82.37-2.08M267.7,92.16l-.32,1.87-2.78.16,1.07.64-.32.96.16,2.08-.37,1.23-1.07,1.07-1.23-2.25-.37,2.3.64-.05,1.34,1.55-1.23.48-1.71,3.47-.43,1.92-1.55.37-.91.86-2.08,1.07-6.25,2.83-2.19,1.12-1.92,1.28-1.07.05v-1.87l-.43-1.92v-2.08l-1.02-1.39.05-2.62-.59.48-.11,1.28-2.19-.59,1.71-5.29.32-1.5,1.5-.8,1.82-1.71.37-1.55.96-1.76-.16-1.87,2.73-.8,2.3-2.19.27-1.66-.32-1.66.86-4.06,3.05-1.02v.75l-1.23,1.18.75.05,1.5,3.1.21,2.62,1.02.48-.11,1.66.86,1.98,1.39-1.02.64.16,4.22.11,2.25.48Z"/>
  <path class="cls-4" d="M336.77,187.95l.69.11-.05.96-1.55,1.07-2.08-.43,2.99-1.71M355.21,184.91l-.75.16.21,1.28-.91.11-.21-.86.96-1.39,1.23.16-.53.53M308.71,167.05l1.34-.27-.91.69-.11,1.28-1.12-.32.8-1.39M306.14,164.97l1.28.27-.05,1.02-.75-.27-.75,1.39.37.75-1.12-.16-.05-1.82.37-1.6.69.43M351.2,163.04l-.05.53-1.92.43-.59,1.02-.91-.05,1.39-1.66,2.08-.27M352.59,160.74l.53.05-.05,1.6-3.47.43-.05-.96,1.82-1.28,1.23.16M364.25,162.13l-.8,1.82-1.39.16-.43-1.34-1.39.32.96-1.44.86-.43.69.96,1.76-2.57.59.48-.05,1.23-.8.8M347.84,193.73l-.37-1.71,2.89-.91,1.34-.96.75-1.12,1.92-1.39-.11,1.71.48,1.28-.75-.05-1.28.8-.43.96-2.67.69-.16.48-1.6.21M312.88,183.19l-3.42-1.6-.32-.64-2.41-.53-.86.53-1.44-.53h-1.34l-1.71-.69-1.18-1.28.96-1.66,1.71-.69,5.56-.69,2.3.37,1.5-1.12.8.8.75,1.02,2.14.75.37,1.6,2.51-.05,1.28,1.07,1.12,1.82,1.5.91.48,1.55-1.39,1.44-1.71.32-1.39,1.07-.75-.59-2.83-.43-1.5-1.28-.75-1.44M357.4,162.99l-.21-.43-1.34,2.08-.59-.59-1.18.8-.96-.59-1.18-.11,1.55-1.44,1.34-.59.05-.53-1.28-.05.53-.59,1.87-.32-.59,1.12.64.48.86-1.92.86.27,1.07-.86,1.76.75-2.03.86-1.18,1.66M374.78,159.14l.59.91-.16,1.5-4.38.75h-1.44l-2.83.8-1.07-.64.91-1.34-.16-1.02.64-.91,1.44-.27.43.91.75-.48,5.29-.21M358.69,182.82l-2.08-.43.86-1.55-.05-1.39.48-2.03,2.08-1.55,1.55-1.76,1.6.96.91-.69.8,1.55.64-.16.43-1.39.96-.96.27-1.5,1.39-.11,1.55-1.34,2.78-1.34.37,1.44,1.66-1.18.96.91-.21,1.55-2.08.11-.21.59.8,1.23.53,1.82-.69.59-.37,1.6-1.5,1.07-1.34,1.92-2.35,1.71-1.5,1.6-3.64.16-1.02,1.28-1.23.27-1.34.86-1.28.11-1.76-.37-1.28.27.27-1.39.64-.75,2.46-1.12-.05-.59M348.8,159.57l.53,2.3-1.39.43-.05,1.18-1.18-.27.59,1.39-.48.75-2.94.8-1.87.96-3.64-.05-1.28.91-2.57,1.07-1.28-.37-.48.69-.32-.86-2.78-.43-.64,1.55-2.14-.27-1.18.64-1.76-.16-1.12-1.28-.8.59-1.5-.21-.59-.53-2.62.05-1.66.37-1.39-.59-1.87.59-.64.75-1.44-1.55-.05-1.76.75-1.28,1.82-1.39,1.02.05,1.23-1.28,2.03-.27h2.62l-.05-.59,1.92,1.12h2.78l.69.64,3.21.96,1.12,1.12,1.12-.05.48.37,1.18-.75v-.8l.86.37,1.87-.48.69.21,1.39-.86.43,1.07,1.23.27,1.87,1.12,2.57-.8-.11-1.23,1.23-1.02,1.92-.48,1.5-.96.86-1.02-.96-.21-1.6.59.59-1.5.86-.53,1.44.91Z"/>
  <path class="cls-4" d="M322.66,149.68l2.19.05.11.43-2.94-.11.64-.37M321.05,147.27l.37.69-1.23.27-.75-.96.05-.86,1.55.86M329.55,96.7l-1.5.64-2.51-1.6h-1.39l-.91.48-.75-1.12.59-.69-.96-1.18-2.89-.43-2.3.91-.48.8-4.06,2.78,1.12,2.46,1.28.59.69,5.51.32.75-1.02,2.51.05,2.03.37.8-.11,2.73.59,2.25.53.64-.59,2.46-.91.59v1.44l-.43,1.98,1.5,2.19,1.07,3.53-1.66-1.39-2.73,1.18-2.25-.27-1.28,1.6-1.92-.11-.21-.75-.75.48-.69-1.12-1.02.37v-.8l-1.12-1.98.59-2.94.59-.53.69-2.35-.48-1.55,1.12-2.41.32-3.05-.37-2.51.43-1.6-.59.64-1.87-3.74.59-2.03-.27-.75-1.02-3.53,2.62-1.02-1.28-2.57-.43-1.76,1.76-.11,1.5-.8-.64-1.6-.53-2.51-1.07-.69.21-1.44,2.14-1.71.53-1.12,2.08-1.23,1.34-.11,1.71.43,1.34-.86.53.32,2.3,2.83,2.3,1.55,6.74,1.02,1.28.43,4.33,3.26-.11,1.6-2.08,2.19M318.27,133.96l-.27,4.38-.32,1.66-.64-4.01-.16-3.64.48-.91.91,2.51Z"/>
  <path class="cls-4" d="M119.9,76.07l.59,1.02-.91,1.66-1.12-.43-.75,1.12-.32-1.44-1.02-.75.75-1.39.75.37,1.02-.91,1.02.75M119.04,68.42l.48.05,1.82,1.82-.05.43-1.92-1.55-.32-.75M115.46,62.92l-.64-.53,1.02-.59.27.96-.64.16M105.25,61.26l1.18,1.55-.11,1.44-1.02-.32-.91-1.28.05-1.34.8-.05M110.44,62.28l-1.39-.86.16-.59.91.59.32.86M114.5,60.67l1.18.32-.96.69-1.23-.91.21-.91.8.8M111.19,59.34l.75.69-.69.16-.86-.86h.8M105.41,59.55l-1.02.16-.59-.69.91-.86.69,1.39M114.07,57.57l-.21,1.12-.96.86-1.23-.32-.64-.91,1.66-1.18,1.39.43M170.47,33.95l-.91-.37.91-1.44.53.21-.53,1.6M132.94,34.21l.48.86-1.44.32.32-1.12-.48-1.02,1.12.96M138.45,30.95l.59.53.05,1.12-.96-.48.32-1.18M122.09,73.72l-2.35.86-1.18-.59.8-2.62.75-.27,1.92,1.55.43.75.96-.64,1.07,1.12,1.02.48-1.92.37-1.5-1.02M115.09,58.11l1.98-1.44,2.41-.05.8,1.18.05,2.19-.59,1.02-1.44-.21-.8-1.12.32-1.28-1.66.75-.86-.11-.21-.91M160.79,24.16l1.76-1.5-2.25-.43-1.02-1.82,2.78-2.99,1.07,1.87,1.12,1.07.21,1.44-.96,2.41-1.71.43-1.02-.48Z"/>
  <path class="cls-4" d="M44.85,81.52l-.75,1.02-1.39-.59.53-2.35.96-1.18.8,1.28-.16,1.82M45.59,78.58l-.16,1.28-3.31-4.49,1.39-.05,1.28,2.35.8.91M46.13,72.91l2.67.27.11.69-1.92.27-1.87-.11-.21-.69,1.23-.43M43.72,54.42l1.18.37-1.98-.16.27-.75.53.53M65.8,42.39h0M65.8,42.39h0M52.65,71.58l-.96-4.54-.53.05-.21-1.92-.75-.64-.96-3.53-1.82-3.58-.48-1.5.69-1.87-1.18-1.34-.86.37-1.66-2.03-1.18-.64-2.19-.48-2.19-1.82.27-1.71-1.44-3.1.53-1.28-.27-1.66-1.71-1.12-.43-2.19.48-.75-.96-1.39,1.55-.96-1.07-1.28-1.71-3.85,2.62-2.99.69-3.31,1.55-.69.96.05.05.91-1.02.59-.05.75,1.02-.91.59,1.23,2.14.32,2.57,1.55.48,1.39,1.12.91,2.03.64,2.83,1.44,3.96,2.46,1.28,1.28,2.03.48,1.34,1.6,1.66,1.18.27,1.87-.48,1.18,1.23-.32,1.02,2.41v-1.92l.86-.37,1.44,1.87h0l-.32,2.51.53,2.14.05,3.69.91.8.96,2.62-1.07.96-2.99,1.5-.43.69,1.07,1.66.91.59.05,3.8-.37,1.34-4.38-1.12-1.5-.16,1.12,1.23,1.66,2.57-.05.8-1.18.53-1.6-.32-1.28-.75-2.99,1.28-2.25,2.83M25.71,58.37l2.19-.11,1.71-1.39,1.44.48,2.73,3.53,1.28.43,1.92,1.92-.43,1.02-.05,3.31-.64,1.02-1.55-.05-1.28-3.1-2.94-1.44-.05-.86-1.82-2.94-2.51-1.82Z"/>
  <path class="cls-4" d="M102.53,65.8l-.53-.27.16-1.55.59-.53,1.07.96-.11,1.07-1.18.32M100.39,59.39l1.82,1.92-1.07.59-3.74-2.19-1.76.43.75-1.87,1.07-.16,2.94,1.28M93.38,60.78l-.8.48-.8-.43-1.34-1.6.05-1.5-.59-.91.16-1.39h.91l2.35,1.92-.21,1.71.27,1.71M83.55,47.74l.75,1.34-.64,2.14-1.66.91-1.5-.64-.91-1.98.48-1.66,1.12.05,1.44-.96.91.8M65.48,44.9l.32-2.51.96,2.46,2.35,2.35,1.34.21,2.41,1.55.53,1.39h.69l-.86-1.87-1.12-1.5.05-1.12,1.18-.64h1.76l.27.91,2.99,1.98,1.12,3.31.64.8,2.03.53,2.35.05,3.1,2.41,1.23.53.43,1.71.75.75-.05,1.44.64,1.02,2.89,2.41,1.12.37,1.39-.21,2.62.16,2.3,1.98.32,1.39-4.33,2.51-.86.21-.75,1.07,1.39-.96,2.51-.59,2.08-1.5,1.07-.37.69-1.02,1.66-.69,2.3,1.12.86,1.5.48-.43,1.44,1.18.53,3.1-2.41.11-.05,1.02-1.12.32-.91,1.28.91-.11-.53,1.55.37.21.59-1.39,1.34-.21,1.6.75v.53l-1.71.64-1.44-.16,1.18.59-.16.64-1.87.64-.05,1.07-.75,1.12,1.18.59-4.12.53h-2.3l-1.34.43-1.44,1.5-1.66,2.3-2.3-.8-1.28-1.55-.91-.21-2.14.43-1.55,1.55-1.34.53-1.28-.8-1.82-.32-3.74-2.62-2.62-2.73-.53-.86-1.82-.86-.91-1.39-.59-1.76,1.18-.48-.16-2.67-4.33-2.94-1.76.48-1.28-.43-1.39-2.35.05-1.39.37-1.34-.05-3.8-.91-.59-1.07-1.66.43-.69,2.99-1.5,1.07-.96-.96-2.62-.91-.8-.05-3.69-.53-2.14M98.25,62.54l-2.08.05-1.5.37-1.92-1.07,1.12-1.28-.27-1.98.8.05,1.18,1.55,1.5-.27,3.26,1.87.43.8-.53,1.07-1.98-1.18M87.34,53.03l.8-.16,2.08.59,1.39.11,1.76.75.37,2.57-.96-.21-1.34-1.34-2.46-.43-.96-.64-.69-1.23Z"/>
  <path class="cls-4" d="M373.28,25.18l-.8-1.02.27-1.02.8.27-.53.75.27,1.02M375.15,14.06l.53.96-.48.53-1.55-.91.16-1.23-1.07-.69-.05-1.18.91.27,1.55,2.25M390.07,10.26l-.91-.32-.32-.96.86.27.37,1.02M388.25,9.52l-.48-1.44-.75-1.39,1.34,1.44-.11,1.39M388.03,3.9l-.21-2.03.27-1.39,1.02-.21.8.59-.11,1.6.86,1.02-1.28,1.66.11,1.5-.59.59-1.23-.43,1.55-2.46-1.18-.43M345.7,47.95l3.37-.16,2.46.59.59-.27,2.73.53,1.44-.16.69-.8,1.82-.69,1.92-1.23.8-1.87,2.57-.27.21-.8-.8-.16-.11-1.07.86-.75.91.16,1.92-1.23-.27-1.18,2.35-1.92.16.64,1.71.05-.11,1.02,1.12,1.18.48-.86-.21,1.71h-1.55l-1.23,3.15-1.5,2.57-.96.48-1.87,1.76-.27,1.02-1.55,2.46.16.37-2.3,1.39-3.15.75-3.96.75-1.39.64-2.19-.48.43-1.44-.86-2.19-2.46-1.39-.59-1.23-1.39-1.07Z"/>
  <path class="cls-4" d="M384.83,88.04l-1.44-.69-.27-1.6-.59-.48-.59-1.76.8-1.6.69.37v2.3l1.18,2.25.21,1.23M404.5,71.79l-.37.48-2.62-.32,1.07-.86,1.92.69M399.47,66.34h-2.08l.64-1.98,1.02.96.43,1.02M397.82,59.82l1.02.27-.43.8.21,1.44-1.87.96-.21-2.94,1.28-.53M427.33,57.84l-1.23-1.23-1.12-.37-.86-1.55,3.42,2.62-.21.53M400.01,54.69l.43.32.32,1.98-.91-1.12.16-1.18M399.9,47.15l.21,1.02-.8.59v-1.66l.59.05M398.83,47.1l-.86-.64.48-.64.69.64-.32.64M379.8,80.24l3.64-.59,4.38.21-.86.64-3.64.59-4.49.37-2.35.53.05-.69-1.18-.96.91-.27.75-.21,2.78.37M366.39,78.53l4.86.91.96.32.27-.86.8.21.11.96,1.12-.69.59,1.66-3.37.43-.48.69-1.98-.48-3.8,1.55-1.71.05-1.07-2.19.59-1.98,1.82-.48,1.28-.11M409.26,77.62l-1.5-.32-2.94.21-2.08.59-2.03-1.12.59-2.78.59.43,1.76-1.6,1.82.43.86.75.86-.11,1.92,1.44,1.12.27.27,1.23-1.23.59M403.64,65.22l1.71-.27,1.39.91-.91,1.23-.91.32-1.23-.69-.37-.91-2.08.91-.32-1.23.37-.96-.91-.21-1.28-1.34.05-2.14.53-.21,1.34.96.64-1.34.8.27.69,1.07.69.53-.86,2.19.64.91M412.25,29.99l-2.51.37-.59-.8-.32-1.76-.43-.21,1.39-2.51,1.76-1.82,1.6-.32,1.39,2.08-.53,2.25-.8,1.98-.96.75M408.62,65.06l-2.73-4.22-1.82-.91-.48-.69.16-3.47-.32-1.44.32-1.44-1.87-1.71-.69-1.71.27-2.25.8-1.23-1.5-.59-.59-2.19-.86.32-.11-2.35,1.55-3.15-.32-.69.59-2.78,1.23-2.3,2.67-3.26,1.6-.48.11.69-1.23,2.19-.96.69-.05,1.28,1.12.27,1.02.96-.16,1.18.53,1.07-.59,3.05-.91,1.87-.75.16-2.35,1.98.27,1.34,1.87,1.07,1.55-1.02.05-1.71,1.44-1.5,1.28-.21.43-.86-1.34-.69,1.07-1.55,2.19-1.71,1.12-.64,3.31-.48-.37,1.6.75.43-.27,4.28-3.21,1.92-1.55.48-.21,1.07-.96.59,1.34,1.28,4.76,1.28.21,2.46,1.71.37.53.8-4.17-.8-.8-.75-2.73.11-1.44-.69-1.18-.05-1.23-.16-.59.59-.32,1.71.64,1.92-.27,2.08,1.76,3.58.37,1.28,2.51,3.58,2.73,2.41-1.87-.32-1.12-1.28-1.98-.64Z"/>
  <path class="cls-4" d="M67.94,108.2l-.8.8-1.5.21-.43-.8.05-1.55-.53-1.07.27-.86,2.83,2.25.11,1.02M61.26,100.71l2.08,2.73-3.26-.91-1.02-1.34.69-1.76,1.28.59.21.69M81.62,101.62l-1.98.96-1.71,1.5-1.39-1.71-1.28-2.3.59-1.34-.48-1.76-.96-.91-1.87-2.62-.21-1.07-.8-.75-.11-1.39-2.08-.69.21-.91-.75-.32.48-1.55-.43-.11-1.12-2.57-1.87-1.76-2.14-2.51-2.41-1.87-.8-1.5-.21-1.71-1.82-1.5-2.57-.69-1.18-.91-.91.37-1.18-.43,2.25-2.83,2.99-1.28,1.28.75,1.6.32,1.18-.53.05-.8-1.66-2.57-1.12-1.23,1.5.16,4.38,1.12-.05,1.39,1.39,2.35,1.28.43,1.76-.48,4.33,2.94.16,2.67-1.18.48.59,1.76.91,1.39,1.82.86.53.86,2.62,2.73,3.74,2.62,1.82.32,1.28.8.21,1.12.75.43-.53.91-1.39.69.11,2.57-2.67,2.83-2.73.32-1.44-.21.53,2.62,1.55,1.92,1.12,2.62M67.89,110.76l-.21-1.76.53-.69,3.21,2.83v.64l.05.8-1.02.32,1.34,1.92-1.28-.48-.53-1.76-2.08-1.82M50.57,86.6l-.16.64,2.25,3.1.91,2.41,1.87,1.82-.05,2.08-1.92.48-2.78-1.34-1.02-1.82-2.99-3.96.53-1.34.11-1.66,2.78-.75.48.32Z"/>
  <path class="cls-4" d="M413.69,159.14l-.16.91-1.34-.11v-.75l1.5-.05M423.9,159.14l-1.5.48-1.07-.69,1.92-.21.64.43M407.01,159.57l-1.07-.37,1.02-.64,1.07.69-1.02.32M408.78,157.8l3.58.96-.91.96-3.05-.96-.32-.91.69-.05M449.67,157.96l1.07.11-2.14,1.07-1.23.21-.21.75-1.44.53,1.12-1.39,2.35-2.03.48.75M433.05,153.9l.96.27.21,1.23-1.02,1.55-1.07-.16-1.23-1.44.43-1.66,1.71.21M450.36,151.33l-.32.75-1.76.27.37-.53,1.71-.48M403.16,152.24l-.21-1.76,1.39.27.05.59-1.23.91M450.95,148.72l-1.18,1.02-1.07-.11.27-.96,1.98.05M460.31,144.6l.75.91-.11,1.02-1.12-1.12h-1.39l-.16-.69,2.03-.11M419.2,146.1l-.48.53-1.34-.86,1.07-1.12,1.02.53-.27.91M495.96,139.9l-.75-.11.86-2.03.59.16-.69,1.98M496.6,137.12l-.91.21-.48-.96h1.28l.11.75M495,135.51l-1.23,1.23-.64-1.18-1.34-.59,1.18-1.18,2.03,1.71M498.05,135.99l-.59-.75.59-1.5.59.64-.59,1.6M489.07,130.17l.91.27.16,1.34,1.28,1.34,1.18.59-1.12.69-2.57-2.25.16-1.98M470.2,125.36l1.34,3.15-.8,1.18-.91-.64v-2.46l-.75-1.39,1.12.16M471.27,124.55l.32,1.5-.64.11-.16-1.34.48-.27M400.12,105.52l-.86.05-.48-.8,1.23-.37.11,1.12M414.98,101.46l-.32-1.07,1.5-.16.48.75-1.66.48M413.59,100.82l.16.69-1.02-.11.32.69-1.44.91.48-1.28-2.67,1.76-.96-.86,1.5-1.5,1.55-.11,1.6-1.07.48.86M417.86,100.18l.53-.43.32,1.44-.75-.59-.53.64-.75-1.07h1.18M403.48,97.18l.64.16.59,1.12-1.87-.75.64-.53M406.58,96.97l-1.71-.21.75-.86.69-.11.27,1.18M409.04,93.12l-.43.91-1.39.27.16-.59,1.66-.59M393.65,151.28l1.23,1.34.96-.05.48.91-1.55.16-1.92.91-1.12,1.87-.53-.43-2.89-.05-1.44-.48-1.82.43-1.39,1.18-.48-.16.37-1.6.75-.64.96-1.71,3.15.37,1.55-.27,2.14-1.34,1.55-.43M455.34,145.51l1.39-.8.21.75.64-.48.48.86-1.23.75.69,2.03-.69,2.35-1.07,1.39-2.14,1.82-.91,2.19-.43-1.02-.69.86-1.44-.05-.37-1.6.96-.8-.32-1.6.86.32-.16-1.44.75-1.6,1.28-.48.53-1.18,1.66-2.25M491.21,141.23l-1.66.8-1.71-1.87.64-3.9,1.07.16-.86-.86-.32-2.57.48-.59,2.08,1.55-.11.53,1.98,1.34,1.12,1.87-2.73,3.53M491.58,126.32l1.34-2.35.64.16-.21-1.28,1.18-.32,1.55,1.39-.69.59,1.5,1.23-.69,2.14.86.69-1.82.59,1.92,2.03-.91,3.05-1.23.59-3.58-1.87-.53-.86-.11-2.99.96-1.02v-.91l-2.03-.64.64-.64,1.23.43M474.05,125.73l1.34-4.38.96-.05-.86,3.74-.86.69-.91,1.02-.32,1.92-1.39,1.44,1.07-3.74.96-.64M384.13,97.83l1.18-1.71,1.23.8,1.39-1.02,1.5-.48,3.74-.27,1.98.53,2.78,1.02.27.91-.86.05.27.75h1.23l1.39.53-.21,2.78-.43.69-1.07-.05-2.19,1.5-2.51,1.23-1.92-.43-5.29-2.51-.32-.91-1.28-.96-.86-2.46M429.57,90.56l2.78,1.34,2.83.86,3.8-.32,1.92,1.34,1.12.37.64,1.12.64,2.41h1.23l1.5,2.08-.48,1.55.16,2.19-3.05-1.02-2.46-1.71-3.74-1.23-1.87-.86-.32-.96-.91-.59-4.44-.32-.53.48.86,1.34-.96.32-1.66-.64-1.55-.05-1.6-.59-1.92.16.21-1.34-1.34-.59-2.25,1.92-.16,1.07-2.46.48-1.07-.64-1.6-2.3-1.28-.32.21-1.02-.8-.43-.86,1.55-.05,1.28-.86,1.02-.69,2.25-.37-.37.43-1.71-.27-1.02-1.02-1.66,2.03-1.28,1.23-.16.16-1.55.64-1.12,2.62-.05,1.66-.37,1.12.21,3.31-.05,2.35-.8.21,1.12.75.75,2.94-1.39,1.07-.91,2.14.16Z"/>
  <path class="cls-4" d="M282.89,164.59l-.86-.43.05-2.03,2.03-.43-1.23,2.89M301.54,162.35l-.91-.21.16-1.02,1.12.16-.37,1.07M268.56,163.04l3.15.75,1.39,1.34-.64,2.03-2.08,3.1.86,1.07-1.6.27.43-.91-.86.27.11,1.18-.86-.59-1.55.27-.69-.48-1.76.32-2.14-1.18,2.73-1.07.11-1.66-.64-1.6.86-.48,1.98-2.03,1.23-.59M286.15,164.16l-1.5-1.44.27-.91,1.98-.91,2.67.21,1.66,2.51.75.48,1.6-1.39,2.51.27.64.96-.43,1.92.8-.96v-1.23l.96-.69,2.14.11.86,1.92-.05,1.92,1.98-.27-.75,1.66-1.76.16-1.18-.75-1.6.32-.21.8,2.19.16.27.53-1.39.16-.91-.53-3.53.91-.96-.86.53-1.07-.48-.37-2.78,2.46-.96-.27-2.25,1.23-1.87-.27-2.08,1.18-2.67.8-1.98-.21-.53.69-1.39.27-3.05-.96-.37-1.71.96-1.12-.91-1.44,1.02-1.92,1.76-.21,2.46-1.82,2.94,1.39.11-.86,1.34-.11.48,1.28.43-.69.27,1.12,1.02.16.96,1.82.96-.27,1.02.53,1.18-1.18,2.57-.27-1.87-1.82-1.55-.11-2.25-1.34Z"/>
  <path class="cls-4" d="M361.47,132.89l-.37.16-.96-1.28.91-.05.43,1.18M355.8,125.14l-.91-.16-.27-1.34,1.02.27.16,1.23M334.58,122.52l.59-.32,1.23,1.44-.05,2.99-1.02.43-1.07-.91-1.02-1.55.53-1.92.8-.16M348.37,108.57l1.5-.16.69,1.18-1.02,1.66-1.02.21-1.39-1.28-.37-.96.91-.96.69.32M323.25,96.22l.91-.48h1.39l2.51,1.6,1.5-.64,2.25.05,3.47,1.18,1.87.16,1.71,1.44-.53.96,1.02.69-1.5.11.53.91-1.07,1.34.64,1.18,1.34.86h1.07l1.12,1.6,1.76.59-1.39.75,1.28.32.27,1.44,2.08-.05-.86-.91.86.05.86,1.66v2.41l-.69.64-2.19-1.44,1.28,1.92-2.14-.91-1.23.53-.8-.21-3.96,1.44-.69,2.3,1.12,1.12-1.71.75-2.08-.43-1.44.32-1.87-1.07-.91-1.02.43-5.24.59.05.48-1.87-.96-.75-2.46-.59-1.18-1.55-1.28-.43-3.42-2.99-.37-1.12,1.28-2.25,1.02-.96-.27-1.55.37-1.92M344.41,116.64l.64,3.74-1.6,1.6-.48,1.87.75,1.12-.59,1.18-.75.21-.43-1.76-.48,1.39-.8-.53-1.55.27.64-3.21.75-.59-1.02-2.78.91-1.23,1.12-.16,1.92-1.34.96.21M345.48,123.8l-.59-.8.53-1.5.53-2.78-.16-2.08.64-2.19,1.34-1.07,2.19,2.08.32,1.34.16,1.71-1.23-1.23-.86.37-.37,2.35-.59.8.27,1.18-.43,1.02.91-.37,2.14,1.23.32.64-.8,1.07-1.02.43-1.07-.27-1.23.86.53.8-1.02,1.87-1.18-.53-1.18.48-.96-1.92,1.92-3.15.86-.32Z"/>
  <path class="cls-4" d="M357.08,83.61l-.96-.16-.11-1.44.75.64.32.96M347.46,82.64h-.37l.37-1.82.64.91-.64.91M353.13,78.74l.59.27-.43,1.23-1.12-.21-.21-1.66.53-1.02.64,1.39M331.21,65.06l.8.8-.43.53-2.46-.37,2.08-.96M333.72,64.04l.16-.75.64,1.5-2.35.43-.69-.21.59-1.07,1.66.11M303.36,71.79l1.39-1.23-.37-.37.91-.96,1.55,2.89v-1.92l-.86-1.28-.48-1.66.16-4.44-.75.21-1.18-.8.43-1.02,1.92,1.34.64-1.98-1.34-1.98.96-.64-.21-.64.64-1.66,1.44-.59-.21-1.87.43-.91,2.08-1.23.43-1.98.75.05.16,1.55,2.78.75,1.34-2.67.53.16.8-1.12.05-2.94,1.07-.59,3.1.43,1.34.8,2.25-.96-.21.86.69,1.28,1.92.64,3.58-.64.59.8,1.44-.48,1.39.37-2.46,1.23-1.92-.32-4.01,1.76-1.6-.11-.91.48-.75,1.28-.91.53,1.23,1.18.96.05.11,1.39-2.08.16-.53.59-1.66-.32-1.12.32-2.73-1.18-2.14.16-1.55.69-1.18,1.28-1.66,2.51-.43,2.14-.69,1.02-.27,1.71,1.44,5.4,2.03,2.67,1.02.59,1.07-.48,1.12.8,1.07,1.55-.11,1.34,1.44,2.14,1.87-.75.75.64,1.23-.21,1.07.43,1.07-1.28.32-1.5.8-.69,2.73-3.69,1.92-.64.75,1.44,2.62.11,2.19-.43.53-1.6.64-.43,4.97-.43,1.34.43,2.41-.48.53-.43-2.25-.43-.59-.43,1.07-.53,2.51-.27.59-.53,2.03.05,2.08.8.69,1.39-.75,3.05-.86.64-2.03-1.34-.75-1.23-.43.59-3.05.69-1.02,2.35-.86.64-1.98,2.83-1.28,1.44-2.19,1.6-2.03.11-2.67,1.39-1.18,2.35-1.87.32-1.28-1.34-1.6-.27.43.86.05,1.66.69-1.02,1.71,1.76.53,1.23,1.6.16,1.55,1.23.8,1.5,1.76,2.41v.96l2.08,1.28.21.75,1.5.64-.32,1.44,2.35,1.55-.37.86-1.12-.05-1.71-1.44-1.87-.16-3.47-1.18-2.25-.05,2.08-2.19.11-1.6-4.33-3.26-1.28-.43-6.74-1.02-2.3-1.55-2.3-2.83-.53-.32-1.34.86-1.71-.43-1.34.11-2.08,1.23-.64-.96.21-1.02-1.6-2.08-.48-1.87-.64-.75-1.87-.69-.11-.53,1.34-1.71-.43-1.18-.21-2.67M343.88,75.16l.69-1.12.91.05,2.83-.59.59.8-.53.43.48,1.71,2.03-2.3,1.71.59-.05,1.98-.8.8-1.23.27-.48-1.07-.8.59v1.92l-.91.05-.86-.8.86-.91-.37-2.14-.86.48-1.12,2.08-1.44.96-.86-1.66.21-2.14Z"/>
  <path class="cls-4" d="M334.53,47.36l.48.16,2.67-.27,2.14.53,2.89,1.66.8-.53.59-1.28,1.6.32,1.39,1.07.59,1.23,2.46,1.39.86,2.19-.43,1.44h-2.73l-2.14-2.25-1.18.48-4.01.21-4.06.05-1.92.43-1.6-.05-.64.43-2.25.37-1.44-1.07-1.98-.11-.21.64-2.14.43-.11-1.39-.96-.05-1.23-1.18.91-.53.75-1.28.91-.48,1.6.11,4.01-1.76,1.92.32,2.46-1.23Z"/>
  <path class="cls-4" d="M240.82,106.49l-.59-.37,1.12-2.35-1.34,1.87-1.44.21-.16-1.87-.91,1.76-1.82,1.02-2.08.59-.96-.16v-1.92l-.32-1.34-1.87.11-1.34,1.12-1.44-1.07-.75-1.18-1.02-.37-.86-1.39-.16,1.39-.75,1.07.86.43-4.7,3.42-1.12.21-1.71-1.07-1.07-.27-2.25.91-2.41,2.46-1.07-.27.16-2.25-.43-2.03.11-1.6-1.34-2.94-.69,1.07.37.53-1.39.86-1.71-.86-1.82.21-2.78,1.66-1.87.37-1.87-.64.53-.8,1.82-1.02,1.28-1.5.8-.43-.21-4.01-1.71-3.26-.27-1.71.32-2.94-.27-.96-1.23-.53,1.07-1.12h1.5l2.25-2.03,1.02-1.34,1.92-1.07.75-2.14,5.51-3.69,3.21.05,2.41-.69,5.02-2.51,1.87-.69,1.23.91.48-1.6-.69-.69.86-1.34,1.23-.86.53-1.71-.37-1.39-1.71-2.08,1.12-.43,1.39.11,1.07-.64.21-1.23,1.5-1.87,2.35-.69.75-.53,1.82-.16,2.41.64,3.42-.59.86-.64,2.89-.91,1.07,1.12.27,1.23-1.18,2.14-.16.96.96,2.67-.53,1.92.48.96,2.14-2.35,1.98-.05-.75,2.73.05,1.12.8,2.35.64.86.53,2.3.64,1.34,2.08,1.02,1.44,1.44.8-.27.05,2.51-.91,1.66h-.53v-.75l-3.05,1.02-.86,4.06.32,1.66-.27,1.66-2.3,2.19-2.73.8.16,1.87-.96,1.76-.37,1.55-1.82,1.71-1.5.8-.32,1.5-1.71,5.29Z"/>
  <path class="cls-4" d="M120.59,92.43l-.48,1.82.64-.37,1.28.75.75,1.5.96-.64,1.28.91.11,1.02-1.5,2.25-.27,2.89.64-1.82,1.28-1.82.64,1.02.86-.53,1.44.48,1.02-.43,5.19.32-.05,1.87.86,1.28,1.28.27.32,2.08,1.12,1.02,1.66.11.53.91.37,2.57-1.66,1.44-.53,1.07-.59,2.73,1.76,1.87-.91,2.14-.37,1.87h-1.5l-1.39-1.18-.27-1.07-.91-1.02-2.57-1.23-.48,1.6-1.6.96-.16,1.28-1.55,1.66-1.66.48-1.92,1.07-1.82.37-2.57,1.66.16,2.3-.48,1.02.96,1.23-.43.96-1.07.11-1.55.75h-2.35l-.48-.96-1.12-.53-1.98-3.53-.16-1.07-5.4-1.82-.69-2.35h-2.03l-2.67-.75-1.82-1.71.91-.32,2.25-2.08-.21-.69h1.39l.21-1.18-.59-1.07-1.34-.16-1.34-1.12-1.6,1.23-2.19-1.34.27-1.23-.75-.75-2.35-.21-.32-1.28-2.03-1.98,1.98-1.34.27-.59,2.41.96,1.82-.32,2.3-1.87.8-1.39-.11-1.28,3.26.32.96-.48-.48-.91.48-1.28,1.18,1.18,1.98,1.28-.11-1.98,1.12-.59-.48-.91.11-1.87,4.22-2.35,2.94.27,2.41-.48,1.23-1.39,1.28.43Z"/>
  <path class="cls-4" d="M304,104.13l-2.41-.59-1.07.8-2.19.32-1.23.75-1.18-2.62.16-.64-1.23-2.41,1.07-.53.21-2.35-1.28.05-.27-1.02.75-1.92,1.12.27,1.18-.91,1.5-1.71-.27-2.89.91-2.41,1.44-.59.27-1.71-.75-1.6.21-1.5-.53-2.25.37-.32-.11-1.82,1.44-1.5.75-2.94.48-.32.21,2.67.43,1.18-1.34,1.71.11.53,1.87.69.64.75.48,1.87,1.6,2.08-.21,1.02.64.96-.53,1.12-2.14,1.71-.21,1.44,1.07.69.53,2.51.64,1.6-1.5.8-1.76.11.43,1.76,1.28,2.57-2.62,1.02,1.02,3.53Z"/>
  <path class="cls-4" d="M106.48,81.09l.11.8.8-.16,1.82,1.6,2.41.96,1.39-.75,3.21,1.02,2.03-.64.32,1.92.69,1.39.27,2.73,1.07,2.46-1.28-.43-1.23,1.39-2.41.48-2.94-.27-4.22,2.35-.11,1.87.48.91-1.12.59.11,1.98-1.98-1.28-1.18-1.18-.48,1.28.48.91-.96.48-3.26-.32.11,1.28-.8,1.39-2.3,1.87-1.82.32-2.41-.96-.27.59-1.98,1.34-2.08-.37-2.14-1.18-2.25-2.14-.69-1.76-1.07-.8-1.18.86-1.12-2.62-1.55-1.92-.53-2.62,1.44.21,2.73-.32,2.67-2.83-.11-2.57,1.39-.69.53-.91-.75-.43-.21-1.12,1.34-.53,1.55-1.55,2.14-.43.91.21,1.28,1.55,2.3.8,1.66-2.3,1.44-1.5,1.34-.43h2.3l4.12-.53Z"/>
</svg>