<?xml version="1.0" encoding="UTF-8"?>
<!DOCTYPE svg PUBLIC "-//W3C//DTD SVG 1.1//EN" "http://www.w3.org/Graphics/SVG/1.1/DTD/svg11.dtd">
<!-- Creator: CorelDRAW X7 -->
<svg xmlns="http://www.w3.org/2000/svg" xml:space="preserve" width="1761px" height="1786px" version="1.1" style="shape-rendering:geometricPrecision; text-rendering:geometricPrecision; image-rendering:optimizeQuality; fill-rule:evenodd; clip-rule:evenodd"
viewBox="0 0 1796 1821"
 xmlns:xlink="http://www.w3.org/1999/xlink">
 <defs>
  <style type="text/css">
   <![CDATA[
    .str0 {stroke:#302D2E;stroke-width:45.5578}
    .fil1 {fill:none}
    .fil3 {fill:#FEFEFE}
    .fil2 {fill:#302D2E}
    .fil5 {fill:#FFC939}
    .fil0 {fill:#009CDC}
    .fil4 {fill:#302D2E;fill-rule:nonzero}
   ]]>
  </style>
 </defs>
 <g id="Layer_x0020_1">
  <metadata id="CorelCorpID_0Corel-Layer"/>
  <g id="_2018713362528">
   <path class="fil0" d="M899 0c446,125 655,280 894,650 19,463 -64,710 -342,1051 -435,162 -694,159 -1105,0 -288,-363 -366,-612 -342,-1051 257,-387 469,-537 895,-650z"/>
   <polyline class="fil1 str0" points="275,739 255,767 216,826 190,902 176,934 179,987 201,1023 208,1065 219,1095 242,1138 240,1161 246,1184 264,1217 281,1239 286,1265 "/>
   <path class="fil2" d="M899 1459c-38,-10 -75,-28 -108,-52 -7,-5 -14,-11 -20,-16l-8 -7c-43,17 -104,37 -167,48 -53,10 -107,13 -152,4 -46,-10 -84,-33 -102,-76 -2,-7 -5,-15 -7,-24l0 0c-36,-24 -54,-53 -59,-76 -2,-5 -2,-10 -3,-14l0 -7c-24,-25 -40,-51 -42,-74 0,-5 0,-10 1,-16l2 -8 0 0 0 0 0 0c-12,-15 -22,-30 -29,-47 -7,-18 -10,-39 -9,-64 -44,-40 -39,-104 -12,-158 32,-63 74,-123 93,-176 10,-29 18,-11 18,-2 0,44 -7,92 -16,134 -1,4 -2,9 -5,23 -4,22 -4,42 2,57 2,6 6,11 11,15 4,4 10,7 18,9 17,3 41,-1 74,-14 80,-34 157,-63 212,-67 61,-4 97,20 85,98 -1,11 -3,22 -5,32 -4,26 -7,41 -5,55 1,10 4,22 12,35 6,10 16,20 30,31l3 -7c-5,-44 0,-88 19,-130 3,-8 7,-15 11,-22l-86 -419c-6,-28 -12,-46 -24,-55 -15,-11 -40,-8 -57,-5 -15,2 -15,-6 -5,-12 16,-9 36,-22 53,-34 32,-21 64,-40 99,-13 4,-30 28,-46 50,-61 7,-5 23,-14 32,-27 8,-11 17,-15 19,-2 0,4 1,11 3,19 16,-17 40,-27 56,-44 9,-10 9,-19 18,-19 8,0 8,9 17,19 16,17 40,27 56,44 2,-8 3,-15 3,-19 2,-13 11,-9 19,2 9,13 25,22 32,27 22,15 46,31 50,61 35,-27 67,-8 99,13 17,12 37,25 53,34 10,6 10,14 -5,12 -17,-3 -42,-6 -57,5 -11,9 -18,27 -24,55l-86 419c4,7 8,14 12,22 18,42 23,86 18,130l3 7c14,-11 24,-21 30,-31 8,-13 11,-25 12,-35 2,-14 -1,-29 -5,-55 -2,-10 -4,-21 -5,-32 -12,-78 24,-102 85,-98 55,4 132,33 212,67 33,13 57,17 74,14 8,-2 14,-5 18,-9 5,-4 9,-9 11,-15 6,-15 6,-35 2,-57 -3,-14 -4,-19 -5,-23 -9,-42 -16,-90 -16,-134 0,-9 8,-27 18,2 19,53 61,113 93,176 27,54 33,118 -12,158 1,25 -2,46 -9,64 -7,17 -17,32 -29,47l0 0 0 0 0 0 2 8c1,6 1,11 1,16 -2,23 -18,49 -42,74l0 7c-1,4 -1,9 -3,14 -5,23 -23,52 -59,76l0 0c-2,9 -4,17 -7,24 -18,43 -55,66 -102,76 -45,9 -99,6 -152,-4 -63,-11 -124,-31 -167,-48l-8 7c-6,5 -13,11 -20,16 -33,24 -70,42 -107,52z"/>
   <path class="fil3" d="M876 795c8,10 16,21 23,34 6,-13 14,-24 22,-34 13,-16 25,-32 26,-55 0,-24 -14,-43 -28,-63 -7,-10 -15,-21 -20,-32 -6,11 -14,22 -21,32 -14,20 -28,39 -28,63 1,23 13,39 26,55z"/>
   <path class="fil3" d="M345 1320c20,8 38,13 56,15 17,1 33,1 52,0 12,0 13,20 -1,21 -18,1 -35,1 -53,-1 -13,-2 -27,-4 -40,-9l2 8c15,36 47,55 88,63 42,9 93,5 144,-4 52,-9 104,-24 144,-39 -60,-11 -106,-32 -138,-63 -36,-35 -53,-83 -50,-146 3,-42 15,-84 27,-123 8,-28 15,-54 19,-77 6,-42 -5,-73 -62,-82 -43,12 -94,32 -146,54 -37,16 -65,20 -86,16 -11,-3 -20,-7 -27,-13 -8,-6 -13,-14 -17,-23 -8,-19 -8,-43 -3,-68 1,-2 3,-13 5,-24 5,-24 10,-46 13,-69 -9,18 -19,36 -30,55 -33,58 -66,116 -55,165 14,61 86,75 139,83 22,3 20,23 -5,19 -29,-5 -63,-12 -89,-24 -6,-2 -11,-5 -16,-7 1,15 4,28 8,40 23,59 67,66 123,71 27,3 25,23 -1,21 -28,-3 -59,-8 -83,-18 -4,-1 -8,-3 -11,-5 -6,31 19,61 49,75 31,15 67,14 91,13 18,-2 18,20 0,20 -19,0 -40,0 -60,-3 -13,-2 -26,-5 -38,-9l1 4c5,19 20,43 50,64z"/>
   <path class="fil3" d="M836 875c-44,30 -72,63 -88,99 -12,28 -18,57 -18,86 11,-17 24,-32 38,-48 31,-34 62,-70 67,-124 1,-4 1,-8 1,-13z"/>
   <path class="fil3" d="M1452 1320c-20,8 -38,13 -56,15 -17,1 -33,1 -52,0 -12,0 -13,20 1,21 18,1 35,1 53,-1 13,-2 27,-4 40,-9l-2 8c-15,36 -47,55 -87,63 -43,9 -94,5 -144,-4 -53,-9 -105,-24 -145,-39 60,-11 106,-32 138,-63 36,-35 53,-83 50,-146 -3,-42 -15,-84 -27,-123 -8,-28 -15,-54 -19,-77 -6,-42 5,-73 62,-82 43,12 94,32 146,54 37,16 66,20 86,16 11,-3 20,-7 28,-13 7,-6 12,-14 16,-23 8,-19 8,-43 3,-68 0,-2 -3,-13 -5,-24 -5,-24 -10,-46 -13,-69 9,18 20,36 30,55 33,58 66,116 55,165 -14,61 -86,75 -139,83 -22,3 -20,23 5,19 29,-5 63,-12 89,-24 6,-2 11,-5 16,-7 -1,15 -4,28 -8,40 -23,59 -67,66 -123,71 -26,3 -25,23 1,21 28,-3 59,-8 83,-18 4,-1 8,-3 11,-5 6,31 -19,61 -49,75 -31,15 -67,14 -91,13 -18,-2 -18,20 0,20 19,0 40,0 60,-3 13,-2 26,-5 38,-9l-1 4c-5,19 -20,43 -50,64z"/>
   <path class="fil3" d="M961 875c44,30 72,63 88,99 12,28 18,57 19,86 -12,-17 -25,-32 -39,-48 -30,-34 -62,-70 -67,-124 -1,-4 -1,-8 -1,-13z"/>
   <path class="fil3" d="M899 1289c-6,0 -6,9 -9,16 -3,7 -5,14 -9,20l-5 11 0 0c-16,34 1,57 23,80 22,-24 38,-46 22,-80l-5 -11c-3,-6 -6,-13 -9,-20 -2,-7 -3,-16 -8,-16z"/>
   <path class="fil3" d="M939 812l-2 2c-11,14 -22,29 -27,49 -5,23 -18,25 -23,1 -4,-18 -13,-32 -23,-45l0 1 -6 -8c0,25 0,57 -3,78 -6,61 -39,99 -72,136 -25,29 -50,57 -59,95l-3 13 -12 -7c-24,-14 -39,-29 -49,-45 -9,-15 -13,-30 -14,-43 -2,-16 0,-32 5,-60 2,-8 3,-18 5,-32 9,-59 -18,-78 -64,-75 -5,1 -11,1 -17,2 39,18 46,52 40,94 -4,24 -12,51 -20,79 -11,38 -23,79 -25,119 -4,57 11,100 43,131 32,31 82,51 148,60l6 3 0 0 0 0c5,6 11,11 17,17 6,5 12,10 19,15 22,16 66,49 93,48 27,0 98,-48 98,-48 0,0 13,-10 19,-15 6,-6 12,-11 17,-17l6 -3c66,-9 116,-29 148,-60 32,-31 47,-74 44,-131 -3,-40 -15,-81 -26,-119 -8,-28 -16,-55 -20,-79 -6,-42 1,-76 40,-94 -6,-1 -12,-1 -17,-2 -46,-3 -73,16 -64,75 2,14 4,24 5,32 5,28 7,44 5,60 -1,13 -5,28 -14,43 -10,16 -25,31 -49,45l-12 7 -3 -13c-9,-38 -34,-66 -59,-95 -33,-37 -66,-75 -72,-136 -3,-21 -3,-53 -3,-78z"/>
   <path class="fil3" d="M837 783c-4,-9 -7,-20 -7,-33 -1,-31 15,-53 31,-75 15,-21 26,-33 31,-63 2,-14 10,-12 12,1 5,27 17,41 32,62 16,22 32,44 31,75 0,13 -3,24 -7,33 0,22 -1,49 0,70 34,21 61,45 80,70l1 -2 81 -398c7,-33 16,-55 32,-67 6,-5 14,-8 22,-9l-7 -5c-26,-18 -52,-35 -79,-18 -10,7 -15,12 -17,23l-40 222c-4,17 -24,14 -20,-5l39 -215c3,-14 7,-29 3,-42 -6,-20 -25,-33 -42,-45 -8,-5 -15,-10 -21,-16 -1,5 -2,10 -3,14l0 0 -25 256c-1,16 -22,14 -20,-4l22 -218c2,-22 3,-32 -13,-48 -7,-6 -15,-13 -23,-19 -8,-6 -17,-11 -23,-18l-8 -10 -9 10c-6,7 -15,12 -23,18 -7,6 -16,13 -23,19 -16,16 -15,26 -13,48l22 218c2,18 -18,20 -20,4l-25 -256 0 0c-1,-4 -2,-9 -3,-14 -6,6 -13,11 -21,16 -17,12 -36,25 -41,45 -4,13 -1,28 2,42l39 215c4,19 -16,22 -20,5l-40 -222c-2,-11 -7,-16 -17,-23 -27,-17 -53,0 -79,18l-7 5c9,1 16,4 22,9 16,12 25,34 32,67l82 398 0 2c19,-25 46,-49 80,-70 1,-21 0,-48 0,-70z"/>
   <path class="fil3" d="M906 1611c27,-2 49,-11 74,-20 38,-15 73,-27 140,-10 19,4 39,13 60,22 44,19 92,40 149,35l5 -18c-24,-19 -32,-55 -39,-89 -2,-9 -4,-18 -6,-27l-2 -7 -8 0c-41,-4 -70,-16 -107,-29 -16,-6 -28,-14 -48,-20 -54,-17 -111,-1 -157,11 -24,6 -44,22 -66,23l0 0 -2 0 -1 0 0 0c-22,-1 -28,-17 -53,-23 -46,-12 -96,-24 -150,-7 -20,6 -43,19 -58,25 -37,13 -66,21 -104,20l-7 0 -2 7 0 0c-3,9 -5,18 -6,27 -8,34 -16,70 -40,89l5 18c57,5 106,-16 149,-35 21,-9 41,-18 60,-22 68,-17 102,-5 140,10 26,9 47,18 74,20z"/>
   <path class="fil4" d="M1061 1566c19,0 39,3 61,8 19,5 39,13 59,22l2 1c38,16 82,35 130,35l11 0 3 -10c-24,-21 -31,-56 -39,-89 -2,-8 -4,-18 -6,-27l-1 -2 -2 -1c-37,-2 -63,-12 -93,-23 -5,-2 -10,-4 -16,-6 -7,-2 -13,-5 -20,-9 -8,-3 -17,-7 -28,-11 -15,-4 -31,-7 -49,-7 -33,0 -66,9 -95,16l-9 3c-10,2 -19,6 -28,10 -13,7 -26,12 -40,13l-2 0 -2 0c-13,-1 -22,-6 -30,-12 -7,-4 -13,-9 -23,-12 -30,-7 -61,-15 -94,-15 -19,0 -36,3 -53,8 -11,3 -23,9 -34,14 -9,4 -17,8 -24,11 -37,13 -64,21 -97,21l-9 -1 -2 1 0 1 -1 6 -1 0c-1,6 -3,12 -4,18l-1 4c-7,33 -15,68 -38,89l2 10 12 0c48,0 91,-19 130,-35l0 0c21,-9 41,-18 60,-23 23,-5 42,-8 61,-8 34,0 58,9 84,19l7 2c22,9 41,16 64,18 23,-2 42,-9 64,-18l8 -2c25,-10 49,-19 83,-19zm252 80c-51,0 -96,-20 -135,-37l-2 0c-20,-9 -39,-17 -57,-22 -21,-5 -40,-8 -58,-8 -31,0 -54,9 -79,18l-7 3c-22,9 -43,16 -68,18l-1 0 0 0c-26,-2 -47,-10 -69,-18l-7 -3c-24,-9 -48,-18 -79,-18 -17,0 -36,3 -57,8 -18,5 -38,13 -59,22l0 0c-40,17 -84,37 -135,37 -6,0 -12,-1 -17,-1l-5 0 -8 -27 4 -3c22,-18 30,-52 37,-85l1 -4c1,-7 3,-15 5,-23l0 0 3 -12 13 -1 0 0 9 0c31,0 56,-7 92,-20 7,-2 15,-6 23,-10 12,-6 24,-11 36,-15 18,-6 37,-9 57,-9 34,0 66,9 97,16 12,4 20,9 28,14 7,5 13,9 23,9l3 0c11,0 22,-5 34,-11 10,-4 20,-9 31,-12l8 -2c30,-8 64,-16 99,-16 19,0 37,2 53,7 12,4 21,8 30,12 6,3 12,6 19,8 5,2 10,4 16,6 29,11 54,20 89,23l12 1 3 12c3,10 5,19 7,27 7,33 14,67 37,85l3 3 -8 27 -4 0c-6,0 -12,1 -17,1z"/>
   <path class="fil4" d="M1310 1579l5 10c-41,9 -87,-9 -129,-28 -32,-14 -64,-28 -94,-29 -34,-2 -66,1 -97,9 -32,7 -62,19 -94,35l0 0 -1 0 0 0 0 0 0 0 0 0 0 0 0 0 0 0 0 1 0 0 0 0 0 0 -1 0 0 0 0 0 0 0 0 0 0 0 0 0 0 0 -1 0 0 0 0 0 0 0 0 0 0 0 0 0 0 0 0 0 0 0 0 0 0 0 -1 0 0 0 0 0 0 0 0 0 0 -1 0 0 0 0 0 0 -1 0 0 0 0 0 0 0 0 0 0 0 0 0 0 0 0 0c-32,-16 -63,-28 -94,-35 -31,-8 -63,-11 -97,-9 -31,1 -59,15 -88,29 -37,19 -78,35 -119,26l5 -11c37,9 74,-7 109,-25 30,-14 60,-29 92,-31 35,-1 68,2 101,10 31,7 62,19 93,35 32,-16 63,-28 94,-35 32,-8 65,-11 101,-10 32,2 65,16 97,31 41,18 82,36 120,28zm-412 -2l0 0 0 0z"/>
   <polygon class="fil4" points="892,1478 903,1478 903,1566 892,1566 "/>
   <path class="fil4" d="M300 619c-36,-17 -54,-25 -90,-42 -6,14 -10,21 -16,36 -7,-3 -11,-5 -18,-8 17,-41 26,-60 47,-96 7,4 11,6 17,10 -7,13 -11,20 -18,34 35,18 53,27 88,45 -4,9 -6,13 -10,21z"/>
   <path class="fil4" d="M232 494c5,-9 8,-14 14,-22 21,14 32,21 54,35 8,6 14,9 17,10 4,2 9,2 13,1 5,-1 9,-5 13,-10 3,-5 5,-10 5,-14 -1,-5 -2,-8 -5,-11 -3,-3 -8,-8 -16,-13 -21,-16 -31,-24 -52,-40 6,-9 9,-13 15,-21 20,16 30,24 49,40 11,9 19,16 23,20 3,5 6,10 7,15 1,5 1,11 0,16 -1,6 -4,12 -9,19 -6,9 -12,15 -17,18 -5,3 -10,5 -16,6 -5,0 -10,0 -14,-2 -7,-2 -16,-7 -27,-14 -22,-13 -33,-20 -54,-33z"/>
   <path class="fil4" d="M414 449c-30,-27 -44,-41 -73,-68 -10,11 -15,16 -24,28 -6,-6 -9,-8 -15,-13 25,-31 39,-46 68,-72 5,6 8,9 13,15 -10,9 -15,14 -25,25 28,28 42,42 70,69 -6,7 -9,10 -14,16z"/>
   <path class="fil4" d="M503 368c-36,-32 -55,-48 -94,-78 8,-6 11,-9 19,-15 26,21 39,33 63,56 -13,-32 -19,-48 -30,-80 10,-6 15,-9 24,-15 25,23 37,36 61,61 -11,-32 -17,-49 -27,-81 9,-5 13,-7 22,-12 12,48 18,72 33,118 -7,4 -11,6 -19,11 -25,-26 -38,-39 -66,-64 12,35 19,52 32,86 -7,5 -11,8 -18,13z"/>
   <path class="fil4" d="M552 199c8,-4 12,-6 21,-10 11,23 17,35 27,58 5,10 8,16 10,18 2,4 6,7 10,8 5,1 9,1 15,-1 5,-3 9,-6 11,-9 1,-4 2,-8 1,-12 -1,-4 -3,-10 -7,-19 -9,-25 -14,-37 -24,-61 9,-4 14,-5 23,-9 8,24 12,36 21,59 5,14 8,24 9,29 0,6 0,12 -1,17 -2,5 -4,9 -8,13 -4,4 -9,7 -16,10 -9,4 -16,6 -22,6 -6,-1 -11,-2 -15,-5 -5,-2 -9,-5 -12,-9 -4,-5 -9,-14 -15,-26 -11,-23 -17,-34 -28,-57z"/>
   <path class="fil4" d="M700 196c6,-2 9,-3 15,-4 11,-3 17,-5 19,-7l5 -6 1 -9c-1,-4 -3,-7 -5,-9l-10 -2c-2,0 -7,1 -17,3 -7,2 -10,3 -17,5 3,12 5,17 9,29zm-1 72c-14,-46 -22,-68 -36,-114 19,-6 28,-8 48,-13 12,-3 21,-4 27,-3 6,1 11,4 16,8 4,5 7,11 8,18 2,9 1,16 -3,23 -3,7 -18,15 -18,15l13 7c4,3 9,9 16,17 7,8 10,12 17,21 -10,1 -15,2 -24,4 -8,-9 -12,-13 -20,-22 -8,-8 -13,-12 -16,-14l-7 -3c-3,-1 -6,0 -11,1l-4 1c5,19 8,29 14,48 -8,2 -12,3 -20,6z"/>
   <path class="fil4" d="M797 245c-8,-47 -12,-71 -20,-118 10,-1 14,-2 24,-3 6,47 9,71 16,118 -8,1 -12,2 -20,3z"/>
   <path class="fil4" d="M875 237c-3,-48 -4,-72 -6,-119 9,-1 14,-1 24,-1 0,19 0,28 0,47 18,0 27,0 44,0 1,-18 1,-28 2,-46 9,0 14,0 24,1 -4,47 -5,71 -9,119 -8,-1 -12,-1 -20,-1 1,-21 1,-32 2,-52 -17,-1 -25,-1 -42,-1 0,21 0,31 1,52 -8,0 -12,0 -20,1z"/>
   <path class="fil4" d="M1036 200c-3,-18 -4,-27 -8,-46 -8,17 -13,25 -21,42 12,1 17,2 29,4zm28 54c-9,-2 -13,-3 -22,-5 -1,-11 -2,-16 -3,-28 -16,-3 -25,-4 -41,-6 -5,10 -7,15 -12,26 -8,-1 -13,-2 -21,-2 20,-47 31,-69 56,-114 10,1 15,2 25,4 10,50 13,75 18,125z"/>
   <path class="fil4" d="M1074 257c12,-46 18,-70 30,-116 9,2 14,4 23,6 9,36 13,54 19,90 11,-30 16,-45 27,-75 8,3 12,4 20,7 -17,45 -25,67 -43,112 -7,-3 -11,-5 -19,-7 -5,-35 -8,-53 -17,-87 -8,30 -13,45 -21,75 -8,-2 -11,-3 -19,-5z"/>
   <path class="fil4" d="M1230 206c-13,29 -19,44 -33,72 6,3 9,4 14,7 6,2 10,4 12,4l10 0c3,-1 7,-4 11,-8 3,-4 8,-10 12,-18 4,-8 7,-15 8,-20 1,-5 1,-9 0,-13l-7 -10c-3,-2 -8,-5 -17,-9l-10 -5zm-13 -28c16,7 24,11 40,18 9,5 15,9 19,13 5,5 9,11 10,18 2,7 2,14 1,22 -2,8 -6,17 -11,26 -5,9 -11,16 -16,21 -7,6 -13,10 -20,12 -5,2 -11,3 -18,2 -4,-1 -10,-3 -17,-6 -14,-7 -21,-10 -35,-16 19,-44 28,-66 47,-110z"/>
   <path class="fil4" d="M1334 327c6,-18 8,-27 13,-45 -15,11 -23,16 -37,28 9,6 14,10 24,17zm2 62c-7,-6 -10,-9 -18,-15 4,-10 6,-16 10,-27 -14,-10 -21,-15 -35,-24 -9,7 -14,11 -22,18 -8,-5 -11,-7 -19,-12 38,-32 59,-48 101,-77 8,6 13,9 21,15 -12,50 -20,74 -38,122z"/>
   <path class="fil4" d="M1355 405c14,-15 20,-23 34,-38 6,-31 8,-47 12,-80 9,7 13,11 22,18 -4,22 -6,33 -11,54 21,-6 31,-9 53,-15 8,8 12,13 20,21 -33,6 -49,9 -80,18 -14,15 -21,22 -34,36 -6,-5 -10,-8 -16,-14z"/>
   <path class="fil4" d="M1470 458c9,-16 14,-24 24,-41 -18,7 -27,10 -44,17 8,9 12,14 20,24zm-13 62c-6,-8 -9,-12 -14,-19 6,-10 9,-15 15,-24 -11,-15 -16,-22 -28,-35 -10,4 -16,7 -26,11 -6,-6 -9,-10 -16,-16 46,-22 70,-31 119,-48 6,9 10,13 17,21 -25,46 -38,68 -67,110z"/>
   <path class="fil4" d="M1463 530c40,-27 60,-40 99,-67 6,9 8,13 14,22 -16,35 -24,52 -43,85 28,-16 42,-23 70,-38 5,9 7,13 11,22 -42,22 -63,32 -106,54 -4,-9 -6,-13 -11,-21 19,-31 28,-47 43,-81 -26,17 -39,25 -65,42 -5,-7 -7,-11 -12,-18z"/>
   <path class="fil4" d="M1518 629c44,-20 65,-29 109,-49 4,10 6,15 11,25 -44,19 -66,28 -110,46 -4,-9 -6,-13 -10,-22z"/>
   <path class="fil4" d="M873 1334c0,0 -14,21 -13,30 0,15 24,43 37,43 14,0 38,-27 38,-42 1,-8 -13,-29 -13,-29 0,0 2,-38 -5,-46 -7,-7 -30,-7 -37,0 -6,8 -7,44 -7,44zm-1 -56c10,-9 43,-8 53,0 11,10 8,56 8,56 0,0 20,25 19,35 -1,18 -36,51 -55,51 -19,0 -54,-34 -55,-53 -1,-10 19,-36 19,-36 0,0 1,-43 11,-53z"/>
   <path class="fil3" d="M942 1052c-16,-26 -33,-56 -44,-92 -14,37 -6,73 1,104 8,35 16,71 -2,126 -7,20 -25,7 -19,-5 30,-73 -7,-141 -16,-161 -7,26 -27,54 -38,79 -16,34 -21,78 0,109 4,6 9,12 15,17 5,4 10,8 16,11 4,-2 8,-5 12,-6l4 -2c8,-3 17,-4 26,-4 13,0 25,3 36,9l6 3c39,-21 49,-58 44,-93 -1,-8 -3,-16 -5,-23 -2,-7 -4,-14 -7,-21l0 0 0 0c-8,-17 -18,-34 -29,-51z"/>
   <path class="fil5" d="M907 913c10,68 32,94 53,129 11,18 22,35 30,53l0 1 0 0 0 0c4,7 6,15 9,23 2,8 4,17 5,25 6,45 -8,92 -62,116l-6 3 -6 -4 -3 -3 -5 -2c-7,-5 -16,-7 -25,-7 -6,0 -13,1 -18,3l-3 1c-4,2 -9,5 -12,8l-6 4 -6 -3 0 0c-11,-4 -19,-10 -27,-16 -8,-7 -14,-14 -19,-21 -25,-38 -19,-89 -2,-127 14,-32 40,-59 46,-99 3,-14 5,-29 18,-4 2,3 4,8 6,15 -6,-25 13,-79 20,-97 6,-16 12,-21 13,2z"/>
   <path class="fil4" d="M930 1250l5 4 2 1 2 -1c59,-26 62,-80 58,-109 -1,-8 -3,-16 -5,-24 -2,-7 -5,-15 -8,-22l-2 -3 1 -1c-8,-17 -18,-32 -28,-49 -4,-6 -8,-12 -11,-18 -17,-27 -35,-56 -43,-114l0 -1 0 -1 -1 1c-6,16 -25,70 -19,93l-13 4c-2,-7 -4,-11 -6,-14l-3 -6 -2 8c-5,28 -17,49 -29,69 -7,11 -13,21 -18,31 -20,45 -19,90 2,121 4,7 10,14 17,19 8,7 16,12 26,16l2 1 2 -1c4,-4 9,-7 14,-9l1 0 1 0 2 -1c6,-2 13,-4 20,-4 10,0 20,3 29,8l1 0 3 2zm5 21l-9 -7 -3 -2 0 0 -3 -2 -1 -1c-11,-6 -26,-7 -38,-2l-1 0 -1 1c-4,1 -8,4 -11,6l-9 7 -11 -5c-10,-4 -19,-10 -27,-17 -8,-7 -15,-14 -21,-23 -23,-35 -24,-85 -2,-133 5,-12 12,-23 18,-33 12,-19 23,-39 28,-64 2,-11 4,-23 13,-23l10 6c4,-26 15,-56 21,-71 4,-11 8,-18 15,-18 10,0 11,14 11,22 8,55 24,81 41,109 4,6 8,12 11,18 10,16 20,32 28,50l1 0 1 3 1 1 0 1c3,8 6,16 8,23 3,9 4,18 6,26 4,33 1,93 -66,124l-10 4z"/>
   <path class="fil4" d="M879 995c0,0 31,64 35,99 3,33 -32,100 -32,100 0,0 17,-63 15,-96 -2,-29 -29,-88 -29,-88l11 -15z"/>
  </g>
 </g>
</svg>
